<svg xmlns="http://www.w3.org/2000/svg" x="0px" y="0px"
width="47" height="47"
viewBox="0 0 172 172"
style=" fill:#000000;"><g fill="none" fill-rule="nonzero" stroke="none" stroke-width="1" stroke-linecap="butt" stroke-linejoin="miter" stroke-miterlimit="10" stroke-dasharray="" stroke-dashoffset="0" font-family="none" font-weight="none" font-size="none" text-anchor="none" style="mix-blend-mode: normal"><path d="M0,172v-172h172v172z" fill="#0a192f"></path><g fill="#cccccc"><path d="M49.88,29.24c-11.38124,0 -20.64,9.25876 -20.64,20.64v72.24c0,11.38124 9.25876,20.64 20.64,20.64h72.24c11.38124,0 20.64,-9.25876 20.64,-20.64v-72.24c0,-11.38124 -9.25876,-20.64 -20.64,-20.64zM49.88,32.68h72.24c9.48408,0 17.2,7.71592 17.2,17.2v72.24c0,9.48408 -7.71592,17.2 -17.2,17.2h-72.24c-9.48408,0 -17.2,-7.71592 -17.2,-17.2v-72.24c0,-9.48408 7.71592,-17.2 17.2,-17.2zM59.34,39.56c-10.90652,0 -19.78,8.87348 -19.78,19.78v53.32c0,10.90652 8.87348,19.78 19.78,19.78h12.85969h29.24h11.22031c10.90652,0 19.78,-8.87348 19.78,-19.78v-25.8c0,-0.47472 -0.38528,-0.86 -0.86,-0.86c-0.47472,0 -0.86,0.38528 -0.86,0.86v25.8c0,9.9588 -8.1012,18.06 -18.06,18.06h-10.36031v-14.35461c0,-3.80636 -1.78388,-7.37243 -4.71992,-9.72539h1.19258c12.33756,0 22.37344,-9.99997 22.37344,-22.29281c0,-5.56764 -2.0636,-10.88488 -5.8218,-15.01976c0.5676,-3.55008 0.57687,-8.88009 -1.03133,-13.69953c-0.11868,-0.35088 -0.44653,-0.58789 -0.81633,-0.58789c-6.96772,0 -12.85087,4.62508 -15.30531,6.88h-21.34211c-6.02,-5.68288 -11.4473,-6.88 -14.94922,-6.88c-0.3698,0 -0.69765,0.23701 -0.81633,0.58789c-1.32096,3.95772 -1.90143,8.69428 -1.54195,12.48344c-4.47028,4.22088 -7.02445,10.11258 -7.02445,16.23922c0,12.29112 10.03424,22.28945 22.37008,22.28945h1.1489c-2.27212,1.77504 -3.89908,4.21588 -4.52172,6.87328c-3.43484,-0.05504 -7.37272,-0.56354 -9.2114,-3.32242c-4.171,-6.2608 -6.27513,-6.72883 -9.00649,-6.72883c-1.14036,0 -1.9988,0.49867 -2.35828,1.36727c-0.50568,1.21776 0.08422,2.83891 1.5789,4.33359c2.01584,2.01756 2.01788,2.01514 4.07156,6.12078c1.24184,2.48368 4.80033,6.60093 14.77117,6.82625v8.61008h-11.99969c-9.9588,0 -18.06,-8.1012 -18.06,-18.06v-53.32c0,-9.9588 8.1012,-18.06 18.06,-18.06h53.32c0.47472,0 0.86,-0.38528 0.86,-0.86c0,-0.47472 -0.38528,-0.86 -0.86,-0.86zM62.50117,56.77344c3.21296,0.14448 7.94514,1.44916 13.2393,6.4836l0.15789,0.15117c0.15996,0.14964 0.36945,0.2318 0.58789,0.2318h22.02406c0.21844,0 0.44809,-0.09895 0.60805,-0.24859c2.05024,-1.93156 7.40344,-6.33933 13.73648,-6.61797c1.37428,4.5494 1.27487,9.4894 0.70211,12.67828c-0.04816,0.27004 0.03424,0.54462 0.22172,0.74242c3.63952,3.85624 5.64711,8.88297 5.64711,14.15305c0,11.3434 -9.26532,20.57281 -20.65344,20.57281h-4.21266c-0.4042,0 -0.75384,0.28135 -0.83984,0.67523c-0.08772,0.39388 0.11231,0.79558 0.48039,0.96414c3.87344,1.77676 6.37945,5.6247 6.37945,9.80602v14.35461h-27.52v-9.46c0,-0.47472 -0.38528,-0.86 -0.86,-0.86c-7.19132,0 -12.19714,-2.0913 -14.09258,-5.88562c-2.13796,-4.2742 -2.18042,-4.35394 -4.39406,-6.56758c-1.15412,-1.15584 -1.35394,-2.10474 -1.20602,-2.45906c0.10836,-0.2666 0.5285,-0.3057 0.7693,-0.3057c1.93156,0 3.60047,-0.00035 7.57539,5.96289c2.42004,3.62748 7.33521,4.09508 11.34797,4.09508c0.4214,0 0.77948,-0.30603 0.84656,-0.72227c0.54696,-3.35228 2.99425,-6.40012 6.38953,-7.955c0.36808,-0.16856 0.57147,-0.57026 0.48375,-0.96414c-0.086,-0.3956 -0.43565,-0.67859 -0.83985,-0.67859h-4.2093c-11.3864,0 -20.65344,-9.22941 -20.65344,-20.57281c0,-5.7878 2.47226,-11.352 6.78258,-15.265c0.20468,-0.18748 0.31151,-0.4605 0.27883,-0.7357c-0.39388,-3.38324 0.08417,-7.85441 1.22281,-11.57305zM131.58,58.48c-0.47472,0 -0.86,0.38528 -0.86,0.86v6.02c0,0.47472 0.38528,0.86 0.86,0.86c0.47472,0 0.86,-0.38528 0.86,-0.86v-6.02c0,-0.47472 -0.38528,-0.86 -0.86,-0.86zM131.58,70.52c-0.47472,0 -0.86,0.38528 -0.86,0.86v11.18c0,0.47472 0.38528,0.86 0.86,0.86c0.47472,0 0.86,-0.38528 0.86,-0.86v-11.18c0,-0.47472 -0.38528,-0.86 -0.86,-0.86z"></path></g></g></svg>