<svg xmlns="http://www.w3.org/2000/svg" x="0px" y="0px"
width="40" height="40"
viewBox="0 0 172 172"
style=" fill:#000000;"><g fill="none" fill-rule="nonzero" stroke="none" stroke-width="1" stroke-linecap="butt" stroke-linejoin="miter" stroke-miterlimit="10" stroke-dasharray="" stroke-dashoffset="0" font-family="none" font-weight="none" font-size="none" text-anchor="none" style="mix-blend-mode: normal"><path d="M0,172v-172h172v172z" fill="#0a192f"></path><g fill="#cccccc"><path d="M32.25,19.35c-5.9125,0 -10.75,4.8375 -10.75,10.75v107.5c0,5.9125 4.8375,10.75 10.75,10.75h107.5c5.9125,0 10.75,-4.8375 10.75,-10.75v-107.5c0,-5.9125 -4.8375,-10.75 -10.75,-10.75zM32.25,23.65h107.5c3.58613,0 6.45,2.86387 6.45,6.45v107.5c0,3.58613 -2.86387,6.45 -6.45,6.45h-107.5c-3.58613,0 -6.45,-2.86387 -6.45,-6.45v-107.5c0,-3.58613 2.86387,-6.45 6.45,-6.45zM51.39004,36.51641c-7.09668,0 -12.8916,5.79492 -12.8916,12.8748c0,7.08828 5.79492,12.8832 12.8916,12.8832c7.07988,0 12.86641,-5.79492 12.86641,-12.8832c0,-7.07988 -5.78652,-12.8748 -12.86641,-12.8748zM77.4,36.55c-1.18418,0 -2.15,0.96582 -2.15,2.15c0,1.18418 0.96582,2.15 2.15,2.15c1.18418,0 2.15,-0.96582 2.15,-2.15c0,-1.18418 -0.96582,-2.15 -2.15,-2.15zM86,36.55c-1.18418,0 -2.15,0.96582 -2.15,2.15c0,1.18418 0.96582,2.15 2.15,2.15c1.18418,0 2.15,-0.96582 2.15,-2.15c0,-1.18418 -0.96582,-2.15 -2.15,-2.15zM94.6,36.55c-1.18418,0 -2.15,0.96582 -2.15,2.15c0,1.18418 0.96582,2.15 2.15,2.15c1.18418,0 2.15,-0.96582 2.15,-2.15c0,-1.18418 -0.96582,-2.15 -2.15,-2.15zM103.2,36.55c-1.18418,0 -2.15,0.96582 -2.15,2.15c0,1.18418 0.96582,2.15 2.15,2.15c1.18418,0 2.15,-0.96582 2.15,-2.15c0,-1.18418 -0.96582,-2.15 -2.15,-2.15zM111.8,36.55c-1.18418,0 -2.15,0.96582 -2.15,2.15c0,1.18418 0.96582,2.15 2.15,2.15c1.18418,0 2.15,-0.96582 2.15,-2.15c0,-1.18418 -0.96582,-2.15 -2.15,-2.15zM120.4,36.55c-1.18418,0 -2.15,0.96582 -2.15,2.15c0,1.18418 0.96582,2.15 2.15,2.15c1.18418,0 2.15,-0.96582 2.15,-2.15c0,-1.18418 -0.96582,-2.15 -2.15,-2.15zM129,36.55c-1.18418,0 -2.15,0.96582 -2.15,2.15c0,1.18418 0.96582,2.15 2.15,2.15c1.18418,0 2.15,-0.96582 2.15,-2.15c0,-1.18418 -0.96582,-2.15 -2.15,-2.15zM51.39004,40.81641c4.74512,0 8.56641,3.82129 8.56641,8.5748c0,4.76191 -3.82129,8.5832 -8.56641,8.5832c-4.77871,0 -8.5916,-3.82129 -8.5916,-8.5832c0,-4.75351 3.81289,-8.5748 8.5916,-8.5748zM107.71836,64.62598c-6.80274,0 -12.02656,2.64551 -15.6043,6.03848v-4.56035h-22.0291v63.80293h22.77656v-31.57812c0,-3.7457 0.42832,-7.25625 1.67129,-9.51543c1.25137,-2.26758 3.02344,-3.61973 7.27305,-3.61973c4.07324,0 5.375,1.42774 6.36601,3.93047c0.99102,2.51113 1.1002,6.25684 1.1002,9.6918v31.09101h20.63496v-4.3l2.15,2.15v-32.63633c0,-8.17168 -0.80625,-15.62949 -4.40078,-21.32363c-3.59453,-5.70254 -10.10332,-9.17109 -19.93789,-9.17109zM39.97656,66.1041v63.80293h22.81016v-63.80293zM107.71836,68.92598c8.89394,0 13.47949,2.6875 16.30137,7.16387c2.82187,4.46797 3.7373,11.16992 3.7373,19.03086v30.48633h-14.18496v-26.79101c0,-3.46016 0.04199,-7.61738 -1.40254,-11.2707c-1.43613,-3.64492 -4.94668,-6.65156 -10.36367,-6.65156c-5.375,0 -9.1459,2.40195 -11.03555,5.84531c-1.88965,3.43496 -2.20879,7.56699 -2.20879,11.58984v27.27812h-14.17656v-55.20293h13.4291v8.12969h3.70371l0.60469,-1.14219c2.09121,-3.95566 7.38223,-8.46563 15.5959,-8.46563zM44.27656,70.4041h14.21016v55.20293h-14.21016z"></path></g></g></svg>